<?xml version="1.0" encoding="utf-8"?><!-- Uploaded to: SVG Repo, www.svgrepo.com, Generator: SVG Repo Mixer Tools -->
<svg width="800px" height="800px" viewBox="0 0 32 32" fill="none" xmlns="http://www.w3.org/2000/svg">
<path
  fill="#36454f"
  stroke="#1a303f"
  stroke-width=".5"
  stroke-linejoin="round"
  fill-rule="evenodd"
  clip-rule="evenodd"
  d="
    M13.0164 2
    C10.8193 2 9.03825 3.72453 9.03825 5.85185
    V8.51852
    H15.9235
    V9.25926
    H5.97814
    C3.78107 9.25926 2 10.9838 2 13.1111
    L2 18.8889
    C2 21.0162 3.78107 22.7407 5.97814 22.7407
    H8.27322
    V19.4815
    C8.27322 17.3542 10.0543 15.6296 12.2514 15.6296
    H19.5956
    C21.4547 15.6296 22.9617 14.1704 22.9617 12.3704
    V5.85185
    C22.9617 3.72453 21.1807 2 18.9836 2
    H13.0164
    Z
  "
/>
<path
  fill="#1a303f"
  stroke="#1a303f"
  stroke-width=".1"
  stroke-linecap="round"
  stroke-linejoin="round"
  d="
    M12.0984 6.74074
    C12.8589 6.74074 13.4754 6.14378 13.4754 5.40741
    C13.4754 4.67103 12.8589 4.07407 12.0984 4.07407
    C11.3378 4.07407 10.7213 4.67103 10.7213 5.40741
    C10.7213 6.14378 11.3378 6.74074 12.0984 6.74074
    Z
  "
/>

<path
  fill="#1a303f"
  stroke="url(#paint1_linear_87_8204)"
  stroke-width="2"
  stroke-linejoin="round"
  fill-rule="evenodd"
  clip-rule="evenodd"
  d="
    M18.9834 30
    C21.1805 30 22.9616 28.2755 22.9616 26.1482
    V23.4815
    L16.0763 23.4815
    L16.0763 22.7408
    L26.0217 22.7408
    C28.2188 22.7408 29.9998 21.0162 29.9998 18.8889
    V13.1111
    C29.9998 10.9838 28.2188 9.25928 26.0217 9.25928
    L23.7266 9.25928
    V12.5185
    C23.7266 14.6459 21.9455 16.3704 19.7485 16.3704
    L12.4042 16.3704
    C10.5451 16.3704 9.03809 17.8296 9.03809 19.6296
    L9.03809 26.1482
    C9.03809 28.2755 10.8192 30 13.0162 30
    H18.9834
    Z
  "
/>

<!-- 4) Separate circle for that second shape -->
<path
  fill="#36454f"
  stroke-width="0.1"
  stroke-linecap="round"
  stroke-linejoin="round"
  d="
    M19.9015 25.2593
    C19.1409 25.2593 18.5244 25.8562 18.5244 26.5926
    C18.5244 27.3290 19.1409 27.9259 19.9015 27.9259
    C20.6620 27.9259 21.2785 27.3290 21.2785 26.5926
    C21.2785 25.8562 20.6620 25.2593 19.9015 25.2593
    Z
  "
/>
</svg>